Coordinates
version=1
nRows=14
nColumns=24
inDegrees=yes

Units are S.I. units (second, meters, Newtons, ...)
Angles are in degrees.

endheader
time	pelvis_tilt	pelvis_list	pelvis_rotation	pelvis_tx	pelvis_ty	pelvis_tz	hip_flexion_r	hip_adduction_r	hip_rotation_r	knee_angle_r	ankle_angle_r	subtalar_angle_r	mtp_angle_r	hip_flexion_l	hip_adduction_l	hip_rotation_l	knee_angle_l	ankle_angle_l	subtalar_angle_l	mtp_angle_l	lumbar_extension	lumbar_bending	lumbar_rotation
      0.92050000	     -7.51419219	      1.01832945	     -0.07842705	     -0.15487243	      1.04040990	      0.30520234	     -1.47266296	      0.69456148	     -0.53409531	    -13.67074980	     21.97892623	     -2.84655856	     -0.02837253	     35.98752907	     -1.70317454	     -1.49765852	    -21.23406869	     10.23270605	      6.52539666	      3.92409442	     -4.14539688	      2.18653657	      4.49381823
      0.92466667	     -7.53182033	      0.93065133	     -0.14320974	     -0.14896145	      1.03897345	      0.30473853	     -1.69727214	      0.74848827	     -0.55517097	    -13.91769100	     22.25654216	     -2.74743709	     -0.12828848	     36.02886580	     -1.74918714	     -1.42822660	    -20.89334544	     10.31050973	      6.45154921	      3.89391714	     -4.07189625	      2.29620804	      4.51193345
      0.92883333	     -7.54819803	      0.83255085	     -0.20831176	     -0.14300350	      1.03757274	      0.30429779	     -1.92692449	      0.81986195	     -0.51599145	    -14.15969215	     22.47075201	     -2.71007254	     -0.15683410	     36.05998138	     -1.80268089	     -1.34261454	    -20.62455150	     10.38444999	      6.43573297	      3.88326900	     -4.00009799	      2.38396723	      4.52750912
      0.93300000	     -7.56650550	      0.76365494	     -0.27786389	     -0.13701298	      1.03616562	      0.30378849	     -2.10415115	      0.83578027	     -0.62445664	    -14.51731883	     22.75664988	     -2.41685269	     -0.25475519	     36.08333329	     -1.81462203	     -1.24198579	    -20.43416639	     10.41747496	      6.24772156	      3.84071345	     -3.89881549	      2.46916869	      4.57277541
      0.93716667	     -7.55723149	      0.69183259	     -0.35524444	     -0.13099876	      1.03483745	      0.30336023	     -2.32462153	      0.87223662	     -0.57425789	    -14.84773406	     22.95203559	     -2.37600958	     -0.28061053	     36.07839014	     -1.84220426	     -1.17641572	    -20.33740993	     10.47333016	      6.21005341	      3.82734381	     -3.84923060	      2.52840378	      4.57984061
      0.94133333	     -7.53606295	      0.64171430	     -0.43211726	     -0.12493614	      1.03354382	      0.30286894	     -2.51698956	      0.86097882	     -0.68886707	    -15.27146753	     23.20731827	     -2.04128528	     -0.35885260	     36.04174045	     -1.83520317	     -1.08896595	    -20.28950555	     10.48824511	      6.06760978	      3.78075286	     -3.79877039	      2.57003832	      4.61977943
      0.94550000	     -7.54522234	      0.58030316	     -0.51777650	     -0.11884524	      1.03222857	      0.30241254	     -2.67093791	      0.86962499	     -0.70482234	    -15.70912174	     23.39916654	     -1.86017204	     -0.41369501	     36.04453426	     -1.84534794	     -1.01246423	    -20.34435941	     10.50129151	      5.97375229	      3.74231414	     -3.70309170	      2.62513221	      4.63913440
      0.94966667	     -7.53471921	      0.50985031	     -0.60146600	     -0.11274392	      1.03096649	      0.30197716	     -2.83751974	      0.89272678	     -0.67905514	    -16.16630752	     23.55382662	     -1.75270276	     -0.42979526	     36.03852140	     -1.86605746	     -0.95205724	    -20.50601526	     10.50874273	      5.90610710	      3.72406252	     -3.64146319	      2.67624446	      4.64979791
      0.95383333	     -7.50615017	      0.47237946	     -0.69377341	     -0.10660372	      1.02978537	      0.30152635	     -2.98935720	      0.86517804	     -0.71661026	    -16.70100090	     23.72098442	     -1.51983687	     -0.43508221	     35.99644008	     -1.85341896	     -0.89167256	    -20.71503884	     10.48222753	      5.82169393	      3.70345519	     -3.59058677	      2.69869672	      4.66692410
      0.95800000	     -7.50437607	      0.43057695	     -0.77571193	     -0.10045717	      1.02858241	      0.30103439	     -3.08166336	      0.83350101	     -0.79685818	    -17.30150103	     23.83370588	     -1.21255229	     -0.42285343	     35.98195955	     -1.83105959	     -0.77546491	    -20.98817241	     10.43440452	      5.75912992	      3.67855303	     -3.51213923	      2.71402102	      4.68245344
      0.96216667	     -7.46669463	      0.40087554	     -0.86611006	     -0.09428932	      1.02750406	      0.30057406	     -3.19985837	      0.78974237	     -0.83080094	    -17.92749345	     23.92275827	     -0.97301835	     -0.38845428	     35.93026513	     -1.80468146	     -0.68914297	    -21.33719677	     10.36375634	      5.68786142	      3.65928311	     -3.47299005	      2.71569845	      4.68479271
      0.96633333	     -7.46825802	      0.35374918	     -0.95035152	     -0.08810678	      1.02638243	      0.30008455	     -3.24980887	      0.76063086	     -0.87803895	    -18.60912738	     23.95697469	     -0.73158378	     -0.33138408	     35.93531595	     -1.79071296	     -0.58423983	    -21.77458632	     10.28775013	      5.63343085	      3.64506146	     -3.37760212	      2.74220365	      4.68609691
      0.97050000	     -7.43104863	      0.34295858	     -1.03343293	     -0.08189915	      1.02539439	      0.29958165	     -3.30849766	      0.67868325	     -0.98043382	    -19.35995707	     23.97468652	     -0.41746033	     -0.21103482	     35.88714201	     -1.73888035	     -0.47983038	    -22.24662128	     10.18738429	      5.56701143	      3.62929184	     -3.32134770	      2.71764555	      4.67669465
      0.97466667	     -7.41137870	      0.30076031	     -1.12374878	     -0.07572077	      1.02442276	      0.29908733	     -3.32647789	      0.63394823	     -1.01387654	    -20.14731832	     23.93572981	     -0.14922663	     -0.09101004	     35.87767371	     -1.72153789	     -0.35546260	    -22.80671784	     10.09450200	      5.50058842	      3.62111528	     -3.26236735	      2.73463681	      4.66505832
